<svg width="382" height="382" viewBox="0 0 382 382" fill="none" xmlns="http://www.w3.org/2000/svg">
<rect width="381.951" height="381.951" rx="24" fill="#113132"/>
<path d="M245.511 300.049C245.511 330.168 221.094 354.585 190.974 354.585C160.855 354.585 136.438 330.168 136.438 300.049C136.438 269.929 160.855 245.512 190.974 245.512C221.094 245.512 245.511 269.929 245.511 300.049Z" fill="#6059D3"/>
<path d="M245.511 81.9023C245.511 112.022 221.094 136.439 190.974 136.439C160.855 136.439 136.438 112.022 136.438 81.9023C136.438 51.7826 160.855 27.3658 190.974 27.3658C221.094 27.3658 245.511 51.7826 245.511 81.9023Z" fill="#C0DDAB"/>
<path d="M136.438 136.439C107.51 136.439 79.7673 147.931 59.3121 168.386C38.8569 188.841 27.3653 216.584 27.3653 245.512C27.3653 274.44 38.8569 302.183 59.3121 322.638C79.7673 343.094 107.51 354.585 136.438 354.585L136.438 136.439Z" fill="#C0DDAB"/>
<path d="M136.44 136.439C136.44 150.763 139.261 164.946 144.743 178.18C150.224 191.413 158.258 203.437 168.387 213.565C178.515 223.694 190.539 231.728 203.773 237.21C217.006 242.691 231.189 245.512 245.513 245.512L245.513 136.439H136.44Z" fill="#EFB544"/>
<path d="M245.511 27.3658C245.511 41.6894 248.332 55.8729 253.813 69.1062C259.295 82.3396 267.329 94.3637 277.458 104.492C287.586 114.62 299.61 122.655 312.843 128.136C326.077 133.618 340.26 136.439 354.584 136.439V27.3658L245.511 27.3658Z" fill="#C0DDAB"/>
<path d="M27.3647 136.439C41.6884 136.439 55.8719 133.618 69.1052 128.136C82.3386 122.655 94.3627 114.62 104.491 104.492C114.619 94.3637 122.654 82.3396 128.135 69.1062C133.617 55.8728 136.438 41.6894 136.438 27.3657L27.3647 27.3657L27.3647 136.439Z" fill="#EFB544"/>
<path d="M245.512 245.512C245.512 259.836 248.333 274.019 253.814 287.252C259.296 300.486 267.33 312.51 277.458 322.638C287.587 332.767 299.611 340.801 312.844 346.282C326.078 351.764 340.261 354.585 354.585 354.585V245.512L245.512 245.512Z" fill="#EFB544"/>
<path d="M354.586 136.439C340.262 136.439 326.079 139.26 312.845 144.742C299.612 150.223 287.588 158.257 277.46 168.386C267.331 178.514 259.297 190.538 253.816 203.772C248.334 217.005 245.513 231.189 245.513 245.512L354.586 245.512V136.439Z" fill="#6059D3"/>
</svg>
