<svg width="234" height="234" viewBox="0 0 234 234" fill="none" xmlns="http://www.w3.org/2000/svg">
<path d="M138.938 175.5V164.531C138.938 151.277 153.352 138.741 162.703 129.797C175.884 117.197 182.813 100.268 182.813 80.4375C182.813 43.875 153.686 14.625 117 14.625C108.351 14.6009 99.7818 16.2867 91.7861 19.5855C83.7905 22.8844 76.5258 27.7312 70.4097 33.8472C64.2937 39.9633 59.4469 47.228 56.1481 55.2236C52.8492 63.2193 51.1634 71.7881 51.1875 80.4375C51.1875 99.5597 58.4132 117.635 71.2969 129.797C80.5975 138.576 95.0625 151.14 95.0625 164.531V175.5M102.375 219.375H131.625M95.0625 197.438H138.938M117 175.5V117" stroke="#C0DDAB" stroke-width="10" stroke-linecap="round" stroke-linejoin="round"/>
<path d="M134.367 109.688C134.367 109.688 124.536 117 117 117C109.464 117 99.6328 109.688 99.6328 109.688" stroke="#C0DDAB" stroke-width="10" stroke-linecap="round" stroke-linejoin="round"/>
</svg>
