<svg width="62" height="63" viewBox="0 0 62 63" fill="none" xmlns="http://www.w3.org/2000/svg">
<g id="ion:bulb-outline">
<path id="Vector" d="M36.8126 46.8395V43.9333C36.8126 40.4216 40.6319 37.1 43.1094 34.7302C46.6018 31.3916 48.4376 26.9063 48.4376 21.652C48.4376 11.9645 40.7203 4.21455 31.0001 4.21455C28.7084 4.20815 26.438 4.65482 24.3195 5.52888C22.201 6.40293 20.2761 7.68712 18.6556 9.30762C17.0351 10.9281 15.751 12.8529 14.8769 14.9714C14.0028 17.0899 13.5562 19.3603 13.5626 21.652C13.5626 26.7186 15.4771 31.5079 18.8907 34.7302C21.355 37.0564 25.1876 40.3852 25.1876 43.9333V46.8395M27.1251 58.4645H34.8751M25.1876 52.652H36.8126M31.0001 46.8395V31.3395" stroke="#113132" stroke-width="4.375" stroke-linecap="round" stroke-linejoin="round"/>
<path id="Vector_2" d="M35.6016 29.4021C35.6016 29.4021 32.9968 31.3396 31 31.3396C29.0032 31.3396 26.3984 29.4021 26.3984 29.4021" stroke="#113132" stroke-width="4.375" stroke-linecap="round" stroke-linejoin="round"/>
</g>
</svg>
