<svg width="30" height="18" viewBox="0 0 30 18" fill="none" xmlns="http://www.w3.org/2000/svg">
<path d="M14.9773 0.0183105C5.89408 0.0183105 0.508789 8.96997 0.508789 8.96997C0.508789 8.96997 5.89408 17.9216 14.9773 17.9216C23.8451 17.9216 29.2304 8.96997 29.2304 8.96997C29.2304 8.96997 23.8451 0.0183105 14.9773 0.0183105ZM14.8696 3.0022C18.8547 3.0022 22.05 5.6877 22.05 8.96997C22.05 12.2821 18.8547 14.9377 14.8696 14.9377C10.9204 14.9377 7.68918 12.2821 7.68918 8.96997C7.68918 5.6877 10.9204 3.0022 14.8696 3.0022ZM14.8696 5.98609C12.895 5.98609 11.2794 7.32884 11.2794 8.96997C11.2794 10.6111 12.895 11.9539 14.8696 11.9539C16.8442 11.9539 18.4598 10.6111 18.4598 8.96997C18.4598 8.67159 18.3162 8.40304 18.2444 8.13449C17.9571 8.61191 17.3827 8.96997 16.6647 8.96997C15.6594 8.96997 14.8696 8.31352 14.8696 7.47803C14.8696 6.88125 15.3004 6.40383 15.8748 6.16512C15.5517 6.0756 15.2286 5.98609 14.8696 5.98609Z" fill="#113132"/>
</svg>
