<svg width="66" height="66" viewBox="0 0 66 66" fill="none" xmlns="http://www.w3.org/2000/svg">
<g id="mingcute:notification-fill" clip-path="url(#clip0_236_819)">
<g id="Group">
<path id="Vector" d="M41.125 52.2979C41.1254 53.6645 40.6093 54.9807 39.6801 55.9827C38.7509 56.9847 37.4772 57.5985 36.1145 57.701L35.7083 57.7146H30.2916C28.9251 57.715 27.6088 57.1989 26.6068 56.2697C25.6048 55.3405 24.991 54.0669 24.8885 52.7041L24.875 52.2979H41.125ZM33 6.25623C37.9155 6.25614 42.639 8.16531 46.1739 11.581C49.7089 14.9967 51.7789 19.6519 51.9475 24.5646L51.9583 25.2146V35.4087L56.8929 45.2779C57.1082 45.7085 57.216 46.1849 57.207 46.6663C57.1979 47.1477 57.0724 47.6197 56.841 48.042C56.6097 48.4642 56.2794 48.8241 55.8786 49.0908C55.4777 49.3575 55.0182 49.523 54.5393 49.5733L54.2279 49.5896H11.772C11.2904 49.5897 10.8159 49.4731 10.3892 49.2496C9.96253 49.0262 9.59638 48.7027 9.32213 48.3068C9.04788 47.9108 8.87371 47.4543 8.81455 46.9763C8.75539 46.4983 8.81301 46.0131 8.98246 45.5623L9.10704 45.2779L14.0416 35.4087V25.2146C14.0416 20.1865 16.039 15.3644 19.5944 11.809C23.1498 8.25362 27.9719 6.25623 33 6.25623Z" fill="#113132"/>
</g>
<circle id="Ellipse 9" cx="46.8502" cy="14.3902" r="6.00543" fill="#DD2929"/>
</g>
<defs>
<clipPath id="clip0_236_819">
<rect width="65" height="65" fill="white" transform="translate(0.5 0.8396)"/>
</clipPath>
</defs>
</svg>
