<svg width="66" height="66" viewBox="0 0 66 66" fill="none" xmlns="http://www.w3.org/2000/svg">
<g id="gg:profile">
<g id="Group">
<path id="Vector" fill-rule="evenodd" clip-rule="evenodd" d="M43.8327 25.2147C43.8327 28.0879 42.6913 30.8434 40.6597 32.875C38.628 34.9066 35.8725 36.048 32.9993 36.048C30.1262 36.048 27.3707 34.9066 25.339 32.875C23.3074 30.8434 22.166 28.0879 22.166 25.2147C22.166 22.3415 23.3074 19.586 25.339 17.5544C27.3707 15.5227 30.1262 14.3813 32.9993 14.3813C35.8725 14.3813 38.628 15.5227 40.6597 17.5544C42.6913 19.586 43.8327 22.3415 43.8327 25.2147ZM38.416 25.2147C38.416 26.6513 37.8453 28.029 36.8295 29.0448C35.8137 30.0607 34.4359 30.6313 32.9993 30.6313C31.5628 30.6313 30.185 30.0607 29.1692 29.0448C28.1534 28.029 27.5827 26.6513 27.5827 25.2147C27.5827 23.7781 28.1534 22.4003 29.1692 21.3845C30.185 20.3687 31.5628 19.798 32.9993 19.798C34.4359 19.798 35.8137 20.3687 36.8295 21.3845C37.8453 22.4003 38.416 23.7781 38.416 25.2147Z" fill="#113132"/>
<path id="Vector_2" fill-rule="evenodd" clip-rule="evenodd" d="M32.9997 3.54797C16.5465 3.54797 3.20801 16.8865 3.20801 33.3396C3.20801 49.7928 16.5465 63.1313 32.9997 63.1313C49.4528 63.1313 62.7913 49.7928 62.7913 33.3396C62.7913 16.8865 49.4528 3.54797 32.9997 3.54797ZM8.62467 33.3396C8.62467 39.0001 10.5557 44.2109 13.7922 48.3492C16.0651 45.3644 18.9973 42.9454 22.3598 41.2813C25.7223 39.6172 29.424 38.7531 33.1757 38.7563C36.8789 38.7528 40.534 39.5946 43.8626 41.2176C47.1912 42.8406 50.1054 45.2019 52.3832 48.1217C54.7298 45.044 56.3099 41.4517 56.9925 37.6421C57.6752 33.8325 57.4408 29.915 56.3089 26.214C55.177 22.5129 53.1801 19.1346 50.4833 16.3585C47.7865 13.5824 44.4674 11.4884 40.8007 10.2498C37.134 9.01111 33.225 8.6634 29.3972 9.2354C25.5694 9.8074 21.9329 11.2827 18.7884 13.5392C15.644 15.7956 13.0821 18.7685 11.3147 22.2116C9.54726 25.6548 8.62516 29.4693 8.62467 33.3396ZM32.9997 57.7146C27.4041 57.723 21.9775 55.7981 17.638 52.2655C19.3847 49.765 21.7095 47.7234 24.4148 46.3144C27.12 44.9054 30.1256 44.1708 33.1757 44.173C36.1878 44.1706 39.157 44.8868 41.8368 46.2622C44.5165 47.6377 46.8294 49.6326 48.5834 52.0813C44.2103 55.7286 38.6942 57.7226 32.9997 57.7146Z" fill="#113132"/>
</g>
</g>
</svg>
