<svg width="670" height="363" viewBox="0 0 670 363" fill="none" xmlns="http://www.w3.org/2000/svg">
<g clip-path="url(#clip0_385_287)">
<rect x="57.7236" width="609.696" height="73.2984" rx="36.6492" fill="#C0DDAB"/>
<rect x="293.124" width="609.696" height="73.2984" rx="36.6492" fill="#EFB544"/>
<rect x="521.426" width="609.696" height="73.2984" rx="36.6492" fill="#113132"/>
<rect x="10.4951" y="73.2983" width="670.918" height="73.2984" rx="36.6492" fill="#6059D3"/>
<rect x="134.688" y="73.2983" width="670.918" height="73.2984" rx="36.6492" fill="#113132"/>
<rect x="424.501" y="73.2983" width="670.918" height="73.2984" rx="36.6492" fill="#C0DDAB"/>
<rect x="134.688" y="146.597" width="546.726" height="73.2984" rx="36.6492" fill="#EFB544"/>
<rect x="299.112" y="146.597" width="546.726" height="73.2984" rx="36.6492" fill="#6059D3"/>
<rect x="96.2056" y="219.895" width="585.208" height="73.2984" rx="36.6492" fill="#C0DDAB"/>
<rect x="397.849" y="219.895" width="585.208" height="73.2984" rx="36.6492" fill="#EFB544"/>
<rect y="289.719" width="681.414" height="73.2984" rx="36.6492" fill="#6059D3"/>
<rect x="205.827" y="289.719" width="681.414" height="73.2984" rx="36.6492" fill="#113132"/>
<rect x="470.147" y="289.719" width="681.414" height="73.2984" rx="36.6492" fill="#C0DDAB"/>
</g>
<defs>
<clipPath id="clip0_385_287">
<rect width="670" height="363" rx="24" fill="white"/>
</clipPath>
</defs>
</svg>
