<svg width="85" height="84" viewBox="0 0 85 84" fill="none" xmlns="http://www.w3.org/2000/svg">
<rect width="85" height="84" rx="42" fill="white"/>
<path d="M48.2501 57.6251V54.7188C48.2501 51.2071 52.0694 47.8855 54.5469 45.5157C58.0393 42.1771 59.8751 37.6918 59.8751 32.4376C59.8751 22.7501 52.1578 15.0001 42.4376 15.0001C40.1459 14.9937 37.8755 15.4403 35.757 16.3144C33.6385 17.1885 31.7136 18.4726 30.0931 20.0931C28.4726 21.7136 27.1885 23.6385 26.3144 25.757C25.4403 27.8755 24.9937 30.1459 25.0001 32.4376C25.0001 37.5041 26.9146 42.2934 30.3282 45.5157C32.7925 47.8419 36.6251 51.1708 36.6251 54.7188V57.6251M38.5626 69.2501H46.3126M36.6251 63.4376H48.2501M42.4376 57.6251V42.1251" stroke="#113132" stroke-width="4.375" stroke-linecap="round" stroke-linejoin="round"/>
<path d="M47.104 40.1797C47.104 40.1797 44.4625 42.125 42.4375 42.125C40.4125 42.125 37.771 40.1797 37.771 40.1797" stroke="#113132" stroke-width="4.375" stroke-linecap="round" stroke-linejoin="round"/>
</svg>
