<svg width="31" height="32" viewBox="0 0 31 32" fill="none" xmlns="http://www.w3.org/2000/svg">
<path d="M15.5 31.375C11.5708 31.375 8.14676 30.0721 5.22779 27.4663C2.30882 24.8606 0.636361 21.6079 0.210417 17.7083H3.7125C4.11111 20.6694 5.42824 23.1181 7.66388 25.0542C9.89951 26.9903 12.5116 27.9583 15.5 27.9583C18.8313 27.9583 21.6574 26.7978 23.9785 24.4767C26.2995 22.1557 27.4595 19.3301 27.4583 16C27.4583 12.6687 26.2978 9.8426 23.9767 7.52154C21.6557 5.20049 18.8301 4.04053 15.5 4.04167C13.5354 4.04167 11.699 4.49722 9.99062 5.40833C8.28229 6.31945 6.84444 7.57222 5.67708 9.16667H10.375V12.5833H0.125V2.33333H3.54167V6.34792C4.99375 4.52569 6.76643 3.11632 8.85971 2.11979C10.953 1.12326 13.1664 0.625 15.5 0.625C17.6354 0.625 19.6359 1.03101 21.5014 1.84304C23.3669 2.65507 24.9898 3.75068 26.3701 5.12988C27.7505 6.51135 28.8466 8.13426 29.6587 9.99863C30.4707 11.863 30.8761 13.8634 30.875 16C30.875 18.1354 30.469 20.1359 29.657 22.0014C28.8449 23.8669 27.7493 25.4898 26.3701 26.8701C24.9887 28.2505 23.3657 29.3466 21.5014 30.1587C19.637 30.9707 17.6366 31.3761 15.5 31.375ZM20.2833 23.175L13.7917 16.6833V7.45833H17.2083V15.3167L22.675 20.7833L20.2833 23.175Z" fill="#113132"/>
</svg>
